<svg width="82" height="24" viewBox="0 0 82 24" fill="none" xmlns="http://www.w3.org/2000/svg">
<path d="M26.3736 9.3913H21.0989V1.04348C21.0989 0.417391 20.6769 0 20.044 0H1.05495C0.421978 0 0 0.417391 0 1.04348V19.8261C0 22.1217 1.8989 24 4.21978 24H22.1538C22.2593 24 22.3648 24 22.4703 23.8957C22.6813 23.8957 22.8923 24 23.2088 24C25.5297 24 27.4286 22.1217 27.4286 19.8261V10.4348C27.4286 9.8087 27.0066 9.3913 26.3736 9.3913ZM7.38462 11.4783H5.27473C4.64176 11.4783 4.21978 11.0609 4.21978 10.4348C4.21978 9.8087 4.64176 9.3913 5.27473 9.3913H7.38462C8.01758 9.3913 8.43956 9.8087 8.43956 10.4348C8.43956 11.0609 8.01758 11.4783 7.38462 11.4783ZM11.6044 7.30435H5.27473C4.64176 7.30435 4.21978 6.88696 4.21978 6.26087C4.21978 5.63478 4.64176 5.21739 5.27473 5.21739H11.6044C12.2374 5.21739 12.6593 5.63478 12.6593 6.26087C12.6593 6.88696 12.2374 7.30435 11.6044 7.30435ZM25.3187 19.8261C25.3187 20.9739 24.3692 21.913 23.2088 21.913C22.9978 21.913 22.7868 21.913 22.5758 21.8087C21.9429 21.6 21.5209 21.0783 21.3099 20.5565V20.4522C21.0989 20.2435 21.0989 20.0348 21.0989 19.8261V11.4783H25.3187V19.8261Z" fill="#4756CA"/>
<path d="M36.2766 20L33.4446 11.584H36.5646L38.0686 17.296L39.5886 11.584H42.4206L39.5886 20H36.2766ZM47.075 20.16C46.3283 20.16 45.667 20.0427 45.091 19.808C44.515 19.5733 44.0296 19.2533 43.635 18.848C43.251 18.432 42.9576 17.9627 42.755 17.44C42.563 16.9173 42.467 16.368 42.467 15.792C42.467 15.216 42.563 14.6667 42.755 14.144C42.9576 13.6107 43.251 13.1413 43.635 12.736C44.0296 12.3307 44.515 12.0107 45.091 11.776C45.667 11.5413 46.3283 11.424 47.075 11.424C47.8323 11.424 48.4936 11.5413 49.059 11.776C49.635 12.0107 50.115 12.3307 50.499 12.736C50.8936 13.1413 51.187 13.6107 51.379 14.144C51.5816 14.6667 51.683 15.216 51.683 15.792C51.683 16.368 51.5816 16.9173 51.379 17.44C51.187 17.9627 50.8936 18.432 50.499 18.848C50.115 19.2533 49.635 19.5733 49.059 19.808C48.4936 20.0427 47.8323 20.16 47.075 20.16ZM45.587 15.792C45.587 16.1653 45.651 16.4907 45.779 16.768C45.907 17.0347 46.083 17.2427 46.307 17.392C46.531 17.5307 46.787 17.6 47.075 17.6C47.363 17.6 47.619 17.5307 47.843 17.392C48.067 17.2427 48.243 17.0347 48.371 16.768C48.499 16.4907 48.563 16.1653 48.563 15.792C48.563 15.4187 48.499 15.0987 48.371 14.832C48.243 14.5547 48.067 14.3467 47.843 14.208C47.619 14.0587 47.363 13.984 47.075 13.984C46.787 13.984 46.531 14.0587 46.307 14.208C46.083 14.3467 45.907 14.5547 45.779 14.832C45.651 15.0987 45.587 15.4187 45.587 15.792ZM56.9191 20.16C56.1724 20.16 55.5111 20.0427 54.9351 19.808C54.3698 19.5733 53.8898 19.2533 53.4951 18.848C53.1004 18.432 52.8018 17.9627 52.5991 17.44C52.3964 16.9173 52.2951 16.368 52.2951 15.792C52.2951 15.024 52.4711 14.3093 52.8231 13.648C53.1858 12.976 53.7084 12.4373 54.3911 12.032C55.0844 11.6267 55.9271 11.424 56.9191 11.424C57.9324 11.424 58.7858 11.6373 59.4791 12.064C60.1724 12.4907 60.6898 13.04 61.0311 13.712L58.0711 14.608C57.9324 14.4053 57.7618 14.2507 57.5591 14.144C57.3671 14.0373 57.1484 13.984 56.9031 13.984C56.6258 13.984 56.3751 14.0587 56.1511 14.208C55.9271 14.3467 55.7458 14.5493 55.6071 14.816C55.4791 15.0827 55.4151 15.408 55.4151 15.792C55.4151 16.1653 55.4791 16.4907 55.6071 16.768C55.7458 17.0347 55.9271 17.2427 56.1511 17.392C56.3751 17.5307 56.6258 17.6 56.9031 17.6C57.0738 17.6 57.2284 17.5787 57.3671 17.536C57.5058 17.4827 57.6338 17.408 57.7511 17.312C57.8791 17.216 57.9858 17.104 58.0711 16.976L61.0311 17.872C60.8071 18.32 60.4978 18.7147 60.1031 19.056C59.7191 19.3973 59.2604 19.6693 58.7271 19.872C58.2044 20.064 57.6018 20.16 56.9191 20.16ZM66.0593 20.16C65.3233 20.16 64.6673 20.048 64.0913 19.824C63.5153 19.5893 63.03 19.2747 62.6353 18.88C62.2513 18.4853 61.958 18.032 61.7553 17.52C61.5527 17.008 61.4513 16.4693 61.4513 15.904C61.4513 15.0933 61.6273 14.352 61.9793 13.68C62.3313 12.9973 62.8487 12.4533 63.5313 12.048C64.214 11.632 65.0567 11.424 66.0593 11.424C67.062 11.424 67.9047 11.6267 68.5873 12.032C69.27 12.4373 69.7873 12.9707 70.1393 13.632C70.4913 14.2933 70.6673 15.0133 70.6673 15.792C70.6673 15.952 70.6567 16.1173 70.6353 16.288C70.6247 16.448 70.6087 16.592 70.5873 16.72H64.6833C64.7047 17.0187 64.7847 17.264 64.9233 17.456C65.0727 17.6373 65.254 17.7707 65.4673 17.856C65.6913 17.9413 65.9207 17.984 66.1553 17.984C66.486 17.984 66.7953 17.9093 67.0833 17.76C67.382 17.6107 67.5793 17.4027 67.6753 17.136L70.2513 17.872C70.0273 18.32 69.7127 18.7147 69.3073 19.056C68.9127 19.3973 68.4433 19.6693 67.8993 19.872C67.3553 20.064 66.742 20.16 66.0593 20.16ZM64.6193 14.896H67.4033C67.3713 14.6187 67.2913 14.384 67.1633 14.192C67.046 14 66.886 13.8507 66.6833 13.744C66.4913 13.6373 66.2673 13.584 66.0113 13.584C65.7553 13.584 65.526 13.6373 65.3233 13.744C65.1313 13.8507 64.9713 14 64.8433 14.192C64.726 14.384 64.6513 14.6187 64.6193 14.896ZM75.8093 20.16C75.0627 20.16 74.4013 20.0427 73.8253 19.808C73.2493 19.5733 72.764 19.2533 72.3693 18.848C71.9853 18.432 71.692 17.9627 71.4893 17.44C71.2973 16.9173 71.2013 16.368 71.2013 15.792C71.2013 15.216 71.2973 14.6667 71.4893 14.144C71.692 13.6107 71.9853 13.1413 72.3693 12.736C72.764 12.3307 73.2493 12.0107 73.8253 11.776C74.4013 11.5413 75.0627 11.424 75.8093 11.424C76.5667 11.424 77.228 11.5413 77.7933 11.776C78.3693 12.0107 78.8493 12.3307 79.2333 12.736C79.628 13.1413 79.9213 13.6107 80.1133 14.144C80.316 14.6667 80.4173 15.216 80.4173 15.792C80.4173 16.368 80.316 16.9173 80.1133 17.44C79.9213 17.9627 79.628 18.432 79.2333 18.848C78.8493 19.2533 78.3693 19.5733 77.7933 19.808C77.228 20.0427 76.5667 20.16 75.8093 20.16ZM74.3213 15.792C74.3213 16.1653 74.3853 16.4907 74.5133 16.768C74.6413 17.0347 74.8173 17.2427 75.0413 17.392C75.2653 17.5307 75.5213 17.6 75.8093 17.6C76.0973 17.6 76.3533 17.5307 76.5773 17.392C76.8013 17.2427 76.9773 17.0347 77.1053 16.768C77.2333 16.4907 77.2973 16.1653 77.2973 15.792C77.2973 15.4187 77.2333 15.0987 77.1053 14.832C76.9773 14.5547 76.8013 14.3467 76.5773 14.208C76.3533 14.0587 76.0973 13.984 75.8093 13.984C75.5213 13.984 75.2653 14.0587 75.0413 14.208C74.8173 14.3467 74.6413 14.5547 74.5133 14.832C74.3853 15.0987 74.3213 15.4187 74.3213 15.792Z" fill="#4756CA"/>
</svg>
